<?xml version="1.0" standalone="no"?>
<!DOCTYPE svg PUBLIC "-//W3C//DTD SVG 20010904//EN"
 "http://www.w3.org/TR/2001/REC-SVG-20010904/DTD/svg10.dtd">
<svg version="1.0" xmlns="http://www.w3.org/2000/svg"
 width="958.000000pt" height="768.000000pt" viewBox="0 0 958.000000 768.000000"
 preserveAspectRatio="xMidYMid meet">

<g transform="translate(0.000000,768.000000) scale(0.100000,-0.100000)"
fill="#000000" stroke="none">
<path d="M4480 7674 c-30 -2 -127 -8 -215 -14 -608 -41 -1280 -190 -1870 -412
-851 -322 -1669 -837 -2298 -1447 l-98 -95 318 -318 317 -317 76 72 c884 842
1989 1388 3170 1566 1194 180 2412 -5 3475 -529 266 -131 415 -216 642 -366
317 -208 573 -412 846 -673 l88 -85 317 317 317 317 -75 76 c-112 113 -350
321 -522 456 -374 295 -731 522 -1158 737 -785 396 -1611 627 -2510 701 -127
11 -720 21 -820 14z"/>
<path d="M4345 5855 c-509 -48 -949 -153 -1410 -336 -180 -71 -546 -252 -705
-349 -316 -192 -617 -421 -893 -681 l-58 -54 319 -318 319 -319 99 92 c999
930 2426 1292 3759 955 459 -116 861 -295 1260 -560 172 -115 376 -277 513
-409 l103 -100 320 320 320 319 -83 78 c-390 368 -779 639 -1252 873 -515 255
-1038 407 -1646 480 -185 22 -773 28 -965 9z"/>
<path d="M4557 4060 c-134 -10 -224 -22 -376 -51 -568 -107 -1126 -389 -1546
-781 l-77 -71 318 -318 318 -318 70 64 c600 536 1434 713 2205 469 297 -94
587 -262 829 -482 l84 -75 316 317 317 317 -94 90 c-420 397 -997 688 -1571
793 -238 43 -568 62 -793 46z"/>
<path d="M4583 1804 c-263 -57 -512 -251 -630 -489 -36 -72 -68 -168 -84 -253
-17 -92 -6 -308 21 -402 89 -308 351 -562 660 -640 74 -19 106 -21 250 -18
157 3 170 5 264 37 230 79 427 251 531 466 72 148 89 224 90 400 0 163 -12
226 -66 356 -62 153 -193 310 -334 404 -167 111 -315 156 -514 154 -69 -1
-154 -7 -188 -15z"/>
</g>
</svg>
